<svg width="105" height="105" xmlns="http://www.w3.org/2000/svg">
 <g>
  <title>Layer 1</title>
  <linearGradient y2="0.21328" x2="0.09044" y1="0.89946" x1="1.0704" id="mark_2_">
   <stop stop-color="#FFB000" offset="0.2"/>
   <stop stop-color="#FFB306" offset="0.323"/>
   <stop stop-color="#FFBD16" offset="0.4838"/>
   <stop stop-color="#FFCD31" offset="0.6649"/>
   <stop stop-color="#FFDB4A" offset="0.8"/>
  </linearGradient>
  <path d="m52.25,67.227997v33.522003c-26.51,0 -48,-21.48999 -48,-48h33.521999c2.48,6.681992 7.796001,11.998001 14.478001,14.477997zm17,-59.369997v13.414c9.332001,3.463991 16,12.45599 16,22.978001s-6.667999,19.514011 -16,22.977997v33.522003h31v-48c0,-20.521999 -12.883003,-38.02701 -31,-44.892zm-17,13.414v-16.521999c-20.521999,0 -38.027,12.882999 -44.892,31h30.414c2.48,-6.682011 7.796001,-11.997999 14.478001,-14.478001zm8.5,40.478001c9.665001,0 17.5,-7.835011 17.5,-17.5s-7.834999,-17.5 -17.5,-17.5s-17.5,7.834991 -17.5,17.5s7.834999,17.5 17.5,17.5z" fill="url(#mark_2_)" id="mark_1_"/>
 </g>
</svg>
